<svg width="32" height="34" viewBox="0 0 32 34" fill="none" xmlns="http://www.w3.org/2000/svg">
<path d="M16 0.467102C7.16429 0.467102 0 7.75669 0 16.7469C0 25.7372 7.16429 33.0268 16 33.0268C24.8357 33.0268 32 25.7372 32 16.7469C32 7.75669 24.8357 0.467102 16 0.467102ZM17.1429 24.5961C17.1429 24.756 17.0143 24.8869 16.8571 24.8869H15.1429C14.9857 24.8869 14.8571 24.756 14.8571 24.5961V14.712C14.8571 14.5521 14.9857 14.4212 15.1429 14.4212H16.8571C17.0143 14.4212 17.1429 14.5521 17.1429 14.712V24.5961ZM16 12.0956C15.5514 12.0862 15.1243 11.8984 14.8103 11.5723C14.4962 11.2462 14.3204 10.8078 14.3204 10.3513C14.3204 9.89475 14.4962 9.4564 14.8103 9.1303C15.1243 8.8042 15.5514 8.61634 16 8.60702C16.4486 8.61634 16.8757 8.8042 17.1898 9.1303C17.5038 9.4564 17.6796 9.89475 17.6796 10.3513C17.6796 10.8078 17.5038 11.2462 17.1898 11.5723C16.8757 11.8984 16.4486 12.0862 16 12.0956Z" fill="black"/>
</svg>
