<svg width="126" height="126" viewBox="0 0 126 126" fill="none" xmlns="http://www.w3.org/2000/svg">
<circle cx="63" cy="63" r="58" stroke="black" stroke-width="10"/>
<path d="M21.108 71V68.004H25.644V54.284H27.38L21.556 57.756V54.34L26.68 51.26H29.256V68.004H33.512V71H21.108ZM43.1891 71.28C40.8744 71.28 39.0637 70.7853 37.7571 69.796C36.4691 68.8067 35.8251 67.4347 35.8251 65.68C35.8251 64.2987 36.2451 63.1507 37.0851 62.236C37.9251 61.3213 39.0171 60.78 40.3611 60.612V61.2C39.1477 60.9387 38.1677 60.3693 37.4211 59.492C36.6931 58.6147 36.3291 57.5507 36.3291 56.3C36.3291 54.6387 36.9357 53.3413 38.1491 52.408C39.3811 51.456 41.0611 50.98 43.1891 50.98C45.3357 50.98 47.0157 51.456 48.2291 52.408C49.4611 53.3413 50.0771 54.6387 50.0771 56.3C50.0771 57.5507 49.7224 58.624 49.0131 59.52C48.3224 60.416 47.3797 60.9667 46.1851 61.172V60.612C47.5104 60.7987 48.5744 61.3493 49.3771 62.264C50.1797 63.16 50.5811 64.2987 50.5811 65.68C50.5811 67.4347 49.9277 68.8067 48.6211 69.796C47.3331 70.7853 45.5224 71.28 43.1891 71.28ZM43.1891 68.48C44.5517 68.48 45.5691 68.228 46.2411 67.724C46.9131 67.2013 47.2491 66.436 47.2491 65.428C47.2491 64.42 46.9131 63.664 46.2411 63.16C45.5691 62.656 44.5517 62.404 43.1891 62.404C41.8451 62.404 40.8277 62.656 40.1371 63.16C39.4651 63.664 39.1291 64.42 39.1291 65.428C39.1291 66.436 39.4651 67.2013 40.1371 67.724C40.8277 68.228 41.8451 68.48 43.1891 68.48ZM43.1891 59.604C44.3464 59.604 45.2237 59.3427 45.8211 58.82C46.4371 58.2973 46.7451 57.5787 46.7451 56.664C46.7451 55.768 46.4371 55.068 45.8211 54.564C45.2237 54.0413 44.3464 53.78 43.1891 53.78C42.0504 53.78 41.1731 54.0413 40.5571 54.564C39.9597 55.068 39.6611 55.768 39.6611 56.664C39.6611 57.5787 39.9597 58.2973 40.5571 58.82C41.1731 59.3427 42.0504 59.604 43.1891 59.604ZM60.8857 71.392L59.7937 68.648C60.4097 68.424 60.9231 68.1347 61.3337 67.78C61.7631 67.4067 62.0991 66.94 62.3417 66.38C62.6031 65.8013 62.7897 65.092 62.9017 64.252C63.0137 63.3933 63.0697 62.376 63.0697 61.2V56.86H74.3257V71H70.8537V59.548H66.2617V61.312C66.2617 63.3467 66.0751 65.0547 65.7017 66.436C65.3284 67.7987 64.7497 68.8813 63.9657 69.684C63.1817 70.4867 62.1551 71.056 60.8857 71.392ZM85.2562 71.28C82.8856 71.28 81.0282 70.6267 79.6842 69.32C78.3402 68.0133 77.6682 66.2213 77.6682 63.944C77.6682 62.4693 77.9576 61.1813 78.5362 60.08C79.1149 58.9787 79.9176 58.12 80.9442 57.504C81.9896 56.888 83.2029 56.58 84.5842 56.58C85.9469 56.58 87.0856 56.8693 88.0002 57.448C88.9149 58.0267 89.6056 58.8387 90.0722 59.884C90.5576 60.9293 90.8002 62.152 90.8002 63.552V64.476H80.4962V62.628H88.3082L87.8322 63.02C87.8322 61.7133 87.5522 60.7147 86.9922 60.024C86.4509 59.3333 85.6576 58.988 84.6122 58.988C83.4549 58.988 82.5589 59.3987 81.9242 60.22C81.3082 61.0413 81.0002 62.1893 81.0002 63.664V64.028C81.0002 65.5587 81.3736 66.7067 82.1202 67.472C82.8856 68.2187 83.9589 68.592 85.3402 68.592C86.1429 68.592 86.8896 68.4893 87.5802 68.284C88.2896 68.06 88.9616 67.7053 89.5962 67.22L90.6322 69.572C89.9602 70.1133 89.1576 70.5333 88.2242 70.832C87.2909 71.1307 86.3016 71.28 85.2562 71.28ZM97.0869 71V59.604H92.2429V56.86H105.431V59.604H100.559V71H97.0869Z" fill="black"/>
</svg>
