<svg width="110" height="49" viewBox="0 0 110 49" fill="none" xmlns="http://www.w3.org/2000/svg">
<rect y="0.160522" width="110" height="48.8395" rx="24.4198" fill="white"/>
<g clip-path="url(#clip0_198_22)">
<path d="M41.8883 25.0163H38.4375C38.1383 25.0163 37.9732 25.2961 38.1562 25.4851L53.875 41.8667C54.0079 42.0059 54.1782 42.1185 54.3728 42.1959C54.5674 42.2734 54.7811 42.3137 54.9977 42.3137C55.2143 42.3137 55.4281 42.2734 55.6227 42.1959C55.8172 42.1185 55.9875 42.0059 56.1205 41.8667L71.8392 25.4851C72.0223 25.2925 71.8571 25.0163 71.558 25.0163H68.1071C67.8883 25.0163 67.6785 25.0999 67.5446 25.238L55 38.32L42.4508 25.238C42.3169 25.0999 42.1071 25.0163 41.8883 25.0163Z" fill="black"/>
</g>
<g clip-path="url(#clip1_198_22)">
<path d="M41.8883 12.8064H38.4375C38.1383 12.8064 37.9732 13.0862 38.1562 13.2752L53.875 29.6568C54.0079 29.796 54.1782 29.9086 54.3728 29.986C54.5674 30.0635 54.7811 30.1038 54.9977 30.1038C55.2143 30.1038 55.4281 30.0635 55.6227 29.986C55.8172 29.9086 55.9875 29.796 56.1205 29.6568L71.8392 13.2752C72.0223 13.0826 71.8571 12.8064 71.558 12.8064H68.1071C67.8883 12.8064 67.6785 12.89 67.5446 13.0281L55 26.1101L42.4508 13.0281C42.3169 12.89 42.1071 12.8064 41.8883 12.8064Z" fill="black"/>
</g>
<defs>
<clipPath id="clip0_198_22">
<rect width="32.5597" height="40" fill="white" transform="translate(35 49) rotate(-90)"/>
</clipPath>
<clipPath id="clip1_198_22">
<rect width="32.5597" height="40" fill="white" transform="translate(35 36.7901) rotate(-90)"/>
</clipPath>
</defs>
</svg>
