<svg width="80" height="69" viewBox="0 0 80 69" fill="none" xmlns="http://www.w3.org/2000/svg">
<path d="M72.2142 10.8551H59.7678L56.8026 2.39996C56.5978 1.82139 56.2224 1.32129 55.7277 0.967956C55.233 0.614625 54.6432 0.4253 54.0388 0.425843H25.9611C24.7256 0.425843 23.6183 1.21735 23.2064 2.39996L20.2321 10.8551H7.78566C3.74057 10.8551 0.464233 14.1888 0.464233 18.3046V60.7666C0.464233 64.8825 3.74057 68.2161 7.78566 68.2161H72.2142C76.2593 68.2161 79.5357 64.8825 79.5357 60.7666V18.3046C79.5357 14.1888 76.2593 10.8551 72.2142 10.8551ZM39.9999 53.3171C31.9098 53.3171 25.3571 46.6499 25.3571 38.4182C25.3571 30.1865 31.9098 23.5192 39.9999 23.5192C48.0901 23.5192 54.6428 30.1865 54.6428 38.4182C54.6428 46.6499 48.0901 53.3171 39.9999 53.3171ZM31.2142 38.4182C31.2142 40.7891 32.1399 43.0628 33.7875 44.7393C35.4352 46.4157 37.6698 47.3576 39.9999 47.3576C42.3301 47.3576 44.5647 46.4157 46.2124 44.7393C47.86 43.0628 48.7857 40.7891 48.7857 38.4182C48.7857 36.0473 47.86 33.7735 46.2124 32.0971C44.5647 30.4206 42.3301 29.4788 39.9999 29.4788C37.6698 29.4788 35.4352 30.4206 33.7875 32.0971C32.1399 33.7735 31.2142 36.0473 31.2142 38.4182Z" fill="white"/>
</svg>
