<svg width="49" height="52" viewBox="0 0 49 52" fill="none" xmlns="http://www.w3.org/2000/svg">
<path d="M35.0977 33.6322C34.5207 32.3506 33.6835 31.1864 32.6325 30.2046C31.5848 29.22 30.3436 28.4349 28.9776 27.8928C28.9654 27.8871 28.9532 27.8842 28.9409 27.8785C30.8464 26.5878 32.0851 24.4853 32.0851 22.1133C32.0851 18.1838 28.6901 15 24.5 15C20.3099 15 16.9149 18.1838 16.9149 22.1133C16.9149 24.4853 18.1536 26.5878 20.0591 27.8813C20.0468 27.8871 20.0346 27.8899 20.0224 27.8957C18.6522 28.4378 17.4227 29.2151 16.3675 30.2075C15.3175 31.1901 14.4804 32.354 13.9023 33.6351C13.3344 34.8892 13.0282 36.2338 13.0001 37.5961C12.9993 37.6267 13.005 37.6572 13.0169 37.6857C13.0288 37.7142 13.0467 37.7402 13.0695 37.7621C13.0923 37.784 13.1196 37.8014 13.1497 37.8133C13.1798 37.8252 13.2121 37.8313 13.2448 37.8313H15.0798C15.2144 37.8313 15.3215 37.7309 15.3245 37.6076C15.3857 35.3933 16.3338 33.3196 18.0099 31.7478C19.744 30.1215 22.0471 29.2266 24.5 29.2266C26.9529 29.2266 29.256 30.1215 30.9901 31.7478C32.6662 33.3196 33.6143 35.3933 33.6755 37.6076C33.6785 37.7338 33.7856 37.8313 33.9202 37.8313H35.7552C35.7879 37.8313 35.8202 37.8252 35.8503 37.8133C35.8804 37.8014 35.9077 37.784 35.9305 37.7621C35.9533 37.7402 35.9712 37.7142 35.9831 37.6857C35.995 37.6572 36.0007 37.6267 35.9999 37.5961C35.9693 36.2251 35.6665 34.8914 35.0977 33.6322ZM24.5 27.0467C23.0962 27.0467 21.7749 26.5333 20.7809 25.6011C19.7869 24.6689 19.2394 23.4298 19.2394 22.1133C19.2394 20.7967 19.7869 19.5577 20.7809 18.6255C21.7749 17.6933 23.0962 17.1799 24.5 17.1799C25.9038 17.1799 27.2251 17.6933 28.2191 18.6255C29.2131 19.5577 29.7606 20.7967 29.7606 22.1133C29.7606 23.4298 29.2131 24.6689 28.2191 25.6011C27.2251 26.5333 25.9038 27.0467 24.5 27.0467Z" fill="#6683E9"/>
<path d="M47 26.1852C47 39.2006 36.8563 49.6224 24.5 49.6224C12.1437 49.6224 2 39.2006 2 26.1852C2 13.1697 12.1437 2.74794 24.5 2.74794C36.8563 2.74794 47 13.1697 47 26.1852Z" stroke="#6683E9" stroke-width="4"/>
</svg>
