<svg width="47" height="48" viewBox="0 0 47 48" fill="none" xmlns="http://www.w3.org/2000/svg">
<path d="M13.8929 27.1429C15.5 32.8 21.9286 36.2571 27.7143 34.6857C31.25 33.4286 34.1429 30.6 35.1072 27.1429" stroke="#6683E9" stroke-width="3" stroke-linecap="round" stroke-linejoin="round"/>
<path d="M17.4286 19.1286C16.9848 19.1286 16.625 18.7768 16.625 18.3429C16.625 17.9089 16.9848 17.5571 17.4286 17.5571" stroke="#6683E9" stroke-width="3" stroke-linecap="round" stroke-linejoin="round"/>
<path d="M17.4286 19.1286C17.8724 19.1286 18.2322 18.7768 18.2322 18.3429C18.2322 17.9089 17.8724 17.5571 17.4286 17.5571" stroke="#6683E9" stroke-width="3" stroke-linecap="round" stroke-linejoin="round"/>
<path d="M31.5715 19.1286C31.1277 19.1286 30.7679 18.7768 30.7679 18.3429C30.7679 17.9089 31.1277 17.5571 31.5715 17.5571" stroke="#6683E9" stroke-width="3" stroke-linecap="round" stroke-linejoin="round"/>
<path d="M31.5715 19.1286C32.0153 19.1286 32.375 18.7768 32.375 18.3429C32.375 17.9089 32.0153 17.5571 31.5715 17.5571" stroke="#6683E9" stroke-width="3" stroke-linecap="round" stroke-linejoin="round"/>
<path d="M45 24C45 36.1902 35.3346 46 23.5 46C11.6654 46 2 36.1902 2 24C2 11.8098 11.6654 2 23.5 2C35.3346 2 45 11.8098 45 24Z" stroke="#6683E9" stroke-width="4"/>
</svg>
