<svg width="49" height="50" viewBox="0 0 49 50" fill="none" xmlns="http://www.w3.org/2000/svg">
<path d="M38.0627 20.3795L29.3691 19.1643L25.4828 11.5862C25.3766 11.3787 25.202 11.2108 24.9863 11.1087C24.4453 10.8518 23.7879 11.0659 23.5174 11.5862L19.6311 19.1643L10.9374 20.3795C10.6978 20.4124 10.4786 20.5211 10.3108 20.6858C10.108 20.8863 9.99624 21.1561 10.0001 21.4358C10.0039 21.7156 10.1231 21.9824 10.3314 22.1777L16.6214 28.0761L15.1353 36.405C15.1005 36.5988 15.1228 36.798 15.1997 36.9802C15.2766 37.1624 15.405 37.3202 15.5704 37.4358C15.7358 37.5513 15.9316 37.62 16.1355 37.634C16.3394 37.6479 16.5433 37.6067 16.7241 37.5149L24.5001 33.5826L32.2761 37.5149C32.4884 37.6236 32.7349 37.6598 32.9711 37.6203C33.5669 37.5215 33.9675 36.9781 33.8648 36.405L32.3788 28.0761L38.6687 22.1777C38.8399 22.0163 38.9529 21.8055 38.9872 21.575C39.0796 20.9987 38.6619 20.4651 38.0627 20.3795ZM29.732 27.2462L30.9681 34.1721L24.5001 30.9051L18.0321 34.1754L19.2681 27.2495L14.0362 22.3424L21.2678 21.3313L24.5001 15.0311L27.7324 21.3313L34.9639 22.3424L29.732 27.2462Z" fill="#6683E9"/>
<path d="M47 24.9357C47 37.6316 36.8939 47.8642 24.5 47.8642C12.1061 47.8642 2 37.6316 2 24.9357C2 12.2398 12.1061 2.0072 24.5 2.0072C36.8939 2.0072 47 12.2398 47 24.9357Z" stroke="#6683E9" stroke-width="4"/>
</svg>
