<svg width="126" height="126" viewBox="0 0 126 126" fill="none" xmlns="http://www.w3.org/2000/svg">
<circle cx="63" cy="63" r="58" stroke="black" stroke-width="10"/>
<path d="M27.5 46L57.5 51" stroke="black" stroke-width="4"/>
<path d="M27 75.5L36 80.5L43 97.5" stroke="black" stroke-width="4"/>
<path d="M99.5 76L90.5 81L83.5 98" stroke="black" stroke-width="4"/>
<path d="M50.5 92.5C50.5 92.5 59.2592 95.2489 65 95C69.5916 94.8009 76.5 92.5 76.5 92.5" stroke="black" stroke-width="4"/>
<path d="M72.5 51C72.5 51 81.2215 52.4246 86.5 51C92.2552 49.4468 99.5 43 99.5 43" stroke="black" stroke-width="4"/>
<path d="M48 55.5C48 59.0899 45.0899 62 41.5 62C37.9101 62 35 59.0899 35 55.5C35 51.9101 37.9101 49 41.5 49C45.0899 49 48 51.9101 48 55.5Z" fill="black"/>
<path d="M92.5 56.5C92.5 60.0899 89.5899 63 86 63C82.4101 63 79.5 60.0899 79.5 56.5C79.5 52.9101 82.4101 50 86 50C89.5899 50 92.5 52.9101 92.5 56.5Z" fill="black"/>
</svg>
