<svg width="1440" height="1630" viewBox="0 0 1440 1630" fill="none" xmlns="http://www.w3.org/2000/svg">
<g filter="url(#filter0_d_129_105)">
<path d="M-161.563 881.18C-161.563 881.18 286.472 1153.66 585.553 1027.05C768.809 949.475 777.896 767.08 962.712 693.887C1255.7 577.854 1670.35 875.566 1670.35 875.566M-161.563 881.18C-161.563 881.18 286.472 1153.66 585.553 1027.05" stroke="#6683E9" stroke-opacity="0.7"/>
<path d="M-160.192 875.246C-160.192 875.246 287.843 1147.72 586.925 1021.12C770.181 943.541 779.268 761.146 964.084 687.953C1257.07 571.92 1671.72 869.632 1671.72 869.632M-160.192 875.246C-160.192 875.246 287.843 1147.72 586.925 1021.12" stroke="#6683E9" stroke-opacity="0.7"/>
<path d="M-152.01 868.873C-152.01 868.873 296.025 1141.35 595.107 1014.75C778.363 937.169 787.45 754.774 972.266 681.581C1265.26 565.548 1679.9 863.26 1679.9 863.26M-152.01 868.873C-152.01 868.873 296.025 1141.35 595.107 1014.75" stroke="#6683E9" stroke-opacity="0.7"/>
<path d="M-143.828 862.501C-143.828 862.501 304.208 1134.98 603.289 1008.37C786.545 930.797 795.632 748.402 980.448 675.209C1273.44 559.176 1688.08 856.888 1688.08 856.888M-143.828 862.501C-143.828 862.501 304.208 1134.98 603.289 1008.37" stroke="#6683E9" stroke-opacity="0.7"/>
<path d="M-135.646 856.129C-135.646 856.129 312.39 1128.61 611.471 1002C794.727 924.425 803.814 742.03 988.63 668.837C1281.62 552.803 1696.26 850.516 1696.26 850.516M-135.646 856.129C-135.646 856.129 312.39 1128.61 611.471 1002" stroke="#6683E9" stroke-opacity="0.7"/>
<path d="M-127.463 849.757C-127.463 849.757 320.572 1122.24 619.653 995.629C802.909 918.053 811.996 735.658 996.812 662.465C1289.8 546.431 1704.45 844.144 1704.45 844.144M-127.463 849.757C-127.463 849.757 320.572 1122.24 619.653 995.629" stroke="#6683E9" stroke-opacity="0.7"/>
<path d="M-119.281 843.385C-119.281 843.385 328.754 1115.86 627.836 989.257C811.091 911.681 820.178 729.286 1004.99 656.093C1297.99 540.059 1712.63 837.772 1712.63 837.772M-119.281 843.385C-119.281 843.385 328.754 1115.86 627.836 989.257" stroke="#6683E9" stroke-opacity="0.7"/>
<path d="M-111.099 837.013C-111.099 837.013 336.936 1109.49 636.018 982.885C819.274 905.309 828.361 722.914 1013.18 649.721C1306.17 533.687 1720.81 831.4 1720.81 831.4M-111.099 837.013C-111.099 837.013 336.936 1109.49 636.018 982.885" stroke="#6683E9" stroke-opacity="0.7"/>
<path d="M-102.917 830.641C-102.917 830.641 345.118 1103.12 644.2 976.513C827.456 898.937 836.543 716.542 1021.36 643.349C1314.35 527.315 1728.99 825.027 1728.99 825.027M-102.917 830.641C-102.917 830.641 345.118 1103.12 644.2 976.513" stroke="#6683E9" stroke-opacity="0.7"/>
<path d="M-94.7351 824.269C-94.7351 824.269 353.3 1096.75 652.382 970.141C835.638 892.565 844.725 710.17 1029.54 636.977C1322.53 520.943 1737.17 818.655 1737.17 818.655M-94.7351 824.269C-94.7351 824.269 353.3 1096.75 652.382 970.141" stroke="#6683E9" stroke-opacity="0.7"/>
<path d="M-86.5529 817.897C-86.5529 817.897 361.482 1090.38 660.564 963.769C843.82 886.193 852.907 703.798 1037.72 630.605C1330.71 514.571 1745.36 812.283 1745.36 812.283M-86.5529 817.897C-86.5529 817.897 361.482 1090.38 660.564 963.769" stroke="#6683E9" stroke-opacity="0.7"/>
<path d="M-78.3707 811.525C-78.3707 811.525 369.664 1084 668.746 957.397C852.002 879.821 861.089 697.425 1045.9 624.233C1338.9 508.199 1753.54 805.911 1753.54 805.911M-78.3707 811.525C-78.3707 811.525 369.664 1084 668.746 957.397" stroke="#6683E9" stroke-opacity="0.7"/>
<path d="M-70.1888 805.153C-70.1888 805.153 377.846 1077.63 676.928 951.025C860.184 873.448 869.271 691.053 1054.09 617.861C1347.08 501.827 1761.72 799.539 1761.72 799.539M-70.1888 805.153C-70.1888 805.153 377.846 1077.63 676.928 951.025" stroke="#6683E9" stroke-opacity="0.7"/>
<path d="M-62.0067 798.781C-62.0067 798.781 386.028 1071.26 685.11 944.652C868.366 867.076 877.453 684.681 1062.27 611.488C1355.26 495.455 1769.9 793.167 1769.9 793.167M-62.0067 798.781C-62.0067 798.781 386.028 1071.26 685.11 944.652" stroke="#6683E9" stroke-opacity="0.7"/>
<path d="M-53.8245 792.408C-53.8245 792.408 394.211 1064.89 693.292 938.28C876.548 860.704 885.635 678.309 1070.45 605.116C1363.44 489.083 1778.08 786.795 1778.08 786.795M-53.8245 792.408C-53.8245 792.408 394.211 1064.89 693.292 938.28" stroke="#6683E9" stroke-opacity="0.7"/>
<path d="M-45.6423 786.036C-45.6423 786.036 402.393 1058.52 701.474 931.908C884.73 854.332 893.817 671.937 1078.63 598.744C1371.62 482.711 1786.27 780.423 1786.27 780.423M-45.6423 786.036C-45.6423 786.036 402.393 1058.52 701.474 931.908" stroke="#6683E9" stroke-opacity="0.7"/>
<path d="M-37.4604 779.664C-37.4604 779.664 410.575 1052.14 709.656 925.536C892.912 847.96 901.999 665.565 1086.82 592.372C1379.81 476.339 1794.45 774.051 1794.45 774.051M-37.4604 779.664C-37.4604 779.664 410.575 1052.14 709.656 925.536" stroke="#6683E9" stroke-opacity="0.7"/>
<path d="M-29.2782 773.292C-29.2782 773.292 418.757 1045.77 717.839 919.164C901.095 841.588 910.182 659.193 1095 586C1387.99 469.967 1802.63 767.679 1802.63 767.679M-29.2782 773.292C-29.2782 773.292 418.757 1045.77 717.839 919.164" stroke="#6683E9" stroke-opacity="0.7"/>
<path d="M-21.0961 766.92C-21.0961 766.92 426.939 1039.4 726.021 912.792C909.277 835.216 918.364 652.821 1103.18 579.628C1396.17 463.594 1810.81 761.307 1810.81 761.307M-21.0961 766.92C-21.0961 766.92 426.939 1039.4 726.021 912.792" stroke="#6683E9" stroke-opacity="0.7"/>
<path d="M-12.9139 760.548C-12.9139 760.548 435.121 1033.03 734.203 906.42C917.459 828.844 926.546 646.449 1111.36 573.256C1404.35 457.222 1819 754.935 1819 754.935M-12.9139 760.548C-12.9139 760.548 435.121 1033.03 734.203 906.42" stroke="#6683E9" stroke-opacity="0.7"/>
<path d="M-4.73194 754.176C-4.73194 754.176 443.303 1026.66 742.385 900.048C925.641 822.472 934.728 640.077 1119.54 566.884C1412.53 450.85 1827.18 748.563 1827.18 748.563M-4.73194 754.176C-4.73194 754.176 443.303 1026.66 742.385 900.048" stroke="#6683E9" stroke-opacity="0.7"/>
</g>
<defs>
<filter id="filter0_d_129_105" x="-236.819" y="468.541" width="2139.28" height="671.564" filterUnits="userSpaceOnUse" color-interpolation-filters="sRGB">
<feFlood flood-opacity="0" result="BackgroundImageFix"/>
<feColorMatrix in="SourceAlpha" type="matrix" values="0 0 0 0 0 0 0 0 0 0 0 0 0 0 0 0 0 0 127 0" result="hardAlpha"/>
<feOffset dy="4"/>
<feGaussianBlur stdDeviation="37.5"/>
<feComposite in2="hardAlpha" operator="out"/>
<feColorMatrix type="matrix" values="0 0 0 0 0.313726 0 0 0 0 0.262745 0 0 0 0 0.92549 0 0 0 1 0"/>
<feBlend mode="normal" in2="BackgroundImageFix" result="effect1_dropShadow_129_105"/>
<feBlend mode="normal" in="SourceGraphic" in2="effect1_dropShadow_129_105" result="shape"/>
</filter>
</defs>
</svg>
